<svg width="107" height="222" viewBox="0 0 107 222" fill="none" xmlns="http://www.w3.org/2000/svg">
<g id="Group 2">
<path id="Vector 1" d="M5.30383 117.5L103.304 218" stroke="#242424" stroke-width="5" stroke-linecap="round"/>
<path id="Vector 2" d="M5.80383 103.5L103.804 3" stroke="#242424" stroke-width="5" stroke-linecap="round"/>
<path id="Vector 3" d="M5.80382 103.5C3.80382 105.833 0.903824 111.9 5.30382 117.5" stroke="#242424" stroke-width="5" stroke-linecap="round"/>
<path id="Vector 4" d="M104 3V219" stroke="#242424" stroke-width="5" stroke-linecap="round"/>
</g>
<g id="Group 3">
<path id="Vector 5" d="M68.5 116C63.9365 122.537 56.0975 125.483 51.7778 132.222C50.8099 133.732 49 137.561 49 133.778C49 131.305 50.0448 124 45.75 124C44.0329 124 40.3157 121.743 39 120.5C36.1275 117.787 31.6115 115.076 28 113.528C25.5548 112.48 23.9076 109.956 21.2778 109C20.4328 108.693 15.2222 110.804 15.2222 112.167C15.2222 113.101 16 110.407 16 109.472C16 108.479 15.1765 106.5 16.25 106.5C19.0809 106.5 20.9962 107.502 24 106" stroke="#242424" stroke-width="20" stroke-linecap="round"/>
<path id="Vector 6" d="M19.5 119C21.0626 119.632 23.0788 121.078 24.5556 121.5C25.9641 121.902 26.2876 123.015 27.5 123.5C28.3594 123.844 28.5761 124.897 29.5 125C30.5612 125.118 32.1754 126.026 32.5 127" stroke="#242424" stroke-width="20" stroke-linecap="round"/>
<path id="Vector 7" d="M34 127.5C35.2061 129.14 36.096 131.025 37.6111 132.389C38.1179 132.845 40.2406 134.502 40 134.389C37.1121 133.03 34.6327 130.768 31.7222 129.389C29.8168 128.486 30.5858 128.802 32.1111 129.389C33.721 130.008 35.4704 131.039 37 131.889C39.034 133.019 42.7437 135.356 43.6111 137.611C44.7428 140.554 45.7599 144.384 48 146.5C48.3339 146.815 48.8759 147.857 49.2778 147.972C49.328 147.987 50.8754 148.024 50.3889 148.389C50.1516 148.567 48.3162 146.478 48 146.25C47.001 145.529 45.9153 144.824 45 144C42.9203 142.128 39.4687 141.313 37.3889 139.611C35.319 137.918 41.414 138 43 138" stroke="#242424" stroke-width="20" stroke-linecap="round"/>
<path id="Vector 8" d="M53.5 147C55.4218 148.864 57.8092 150.21 59.5 152C60.8465 153.426 62.0581 155.182 63.2778 156.75C64.8832 158.814 67.1356 160.255 67.5278 163C67.8083 164.963 71.5492 166.38 68.1111 164C67.5535 163.614 62.7222 161.406 62.7222 161C62.7222 158.283 65.4716 154.843 66.2778 152.194C67.991 146.565 67.5 140.76 67.5 134.917C67.5 125.721 71.5 117.05 71.5 107.778C71.5 103.496 69.5002 98.2295 64.6111 101C62.904 101.967 60.6733 103.262 59.6111 105C58.7818 106.357 56.963 106.779 55.75 107.722C55.1032 108.225 53.6339 109.84 52.9444 109.917C50.3625 110.204 46.8114 107.878 44.6111 106.778C42.9153 105.93 40.8081 103.1 39 103C36.1156 102.84 32.3806 103.711 29.75 102.25C28.3619 101.479 26.5671 101.022 25 100.5" stroke="#242424" stroke-width="20" stroke-linecap="round"/>
<path id="Vector 9" d="M59.5 129C60.7814 130.281 63.5 132.42 63.5 134.5C63.5 136.583 63.5 138.667 63.5 140.75C63.5 142.957 63.5848 145.183 63.5 147.389C63.4164 149.562 59.5314 149.969 58.25 151.25C53.1512 156.349 64.5801 154.5 67.2778 154.5C68.6852 154.5 70.0926 154.5 71.5 154.5C72.9787 154.5 73.185 152.459 74 151.5C76.715 148.306 77.3087 144.731 78.25 140.778C79.0553 137.396 78.3278 133.835 79.1111 130.389C80.4626 124.442 81.6785 118.5 82.75 112.5C83.6865 107.256 83 101.435 83 96.1111C83 92.7367 82 89.5452 82 86.25C82 80.6338 82.1105 74.4846 80.0278 69.2778C79.0115 66.7372 78.5 63.6186 78.5 60.8889C78.5 58.9686 78.9835 56.3717 77.7222 54.75C76.1344 52.7085 75.3363 52 72.75 52C69.9504 52 68.1691 53.0173 65.7222 54.2778C63.7716 55.2826 64 57.8949 64 59.75C64 61.938 61.826 63.2272 60.3889 64.6111C58.9699 65.9775 55.983 67.2016 55.5278 69.25C54.9711 71.7553 53.7636 72.4793 51.5 73.6111C47.5563 75.583 46.4314 79.8962 43.5 83C42.3234 84.2458 41.0141 85.2637 39.7778 86.5C38.5227 87.7551 37.9906 89.4539 36.75 90.6944C35.2542 92.1903 33.3341 93.4719 31.5 94.3889C30.1913 95.0432 29.5 94.7625 29.5 96.6111C29.5 99.2525 29.9526 101.651 31.8056 103.722C35.5692 107.929 43.8073 109.738 48.8889 107.5C55.1504 104.742 59.6917 99.3491 64.3889 94.6111C67.8416 91.1284 73.5183 87.7696 75.6944 83.25C76.0345 82.5437 78.4229 78.2696 76.9722 78.0278C73.8193 77.5023 70.8104 80.6192 68.4444 82.1111C61.1674 86.6998 53.3977 90.122 46.6111 95.5C44.3066 97.3262 42.655 99.8191 40.4722 101.75C39.0683 102.992 37.582 103.47 38.75 105.028C39.6086 106.173 40.8428 106.729 42 107.5" stroke="#242424" stroke-width="20" stroke-linecap="round"/>
<path id="Vector 10" d="M32.5 99.5C31.4566 97.7176 30.5104 96.7118 32.1111 95.1111C33.2251 93.9972 33.5816 93.3924 34.2778 92C34.8499 90.8557 35.9288 89.8534 36 88.5C36.0763 87.0504 37.3002 87.3669 38.4722 86.7222C40.7552 85.4666 43.5834 83.5027 45.5 81.7778C46.8177 80.5919 48.3693 78.5436 50 78" stroke="#242424" stroke-width="20" stroke-linecap="round"/>
<path id="Vector 11" d="M46 78C45.6729 78.0638 42.147 78.2693 42.0278 78.8056C41.7617 80.0027 42.4577 80.5 43.5 80.5" stroke="#242424" stroke-width="20" stroke-linecap="round"/>
<path id="Vector 12" d="M62.5 165.5C66.416 167.924 69.6282 171.724 73.75 173.556C76.7473 174.888 79.9653 177.908 82.3889 180.111C84.405 181.944 85.2936 187.5 88.75 187.5C93.6314 187.5 94 183.866 94 179.75C94 177.908 94.4865 175.289 93.25 173.778C92.2527 172.559 92 170.19 92 168.611C92 166.991 92 165.37 92 163.75C92 160.581 88.0742 162.38 86.3333 163.889C84.1867 165.749 82.4218 164.158 82.5 161.5C82.5891 158.472 86.0208 156.165 87.7222 154C88.9123 152.485 91.8768 153.842 92 151.5C92.084 149.905 91.6236 147.968 92.2778 146.472C93.7308 143.151 93.5 140.217 93.5 136.611C93.5 133.142 92.601 128.217 93.75 125C95.1112 121.189 94.5 116.515 94.5 112.5C94.5 109.225 94.5731 103.961 95.8889 101C96.477 99.6768 96 97.3266 96 95.8889C96 93.0093 96 90.1296 96 87.25C96 83.25 96 79.25 96 75.25C96 70.537 96 65.8241 96 61.1111C96 57.3869 93 54.2152 93 50.5" stroke="#242424" stroke-width="20" stroke-linecap="round"/>
<path id="Vector 13" d="M89.5 170C91.4873 172.544 91.5257 172.342 92.1111 170C92.5388 168.289 93.905 166.211 94 164.5C94.0625 163.374 93.9583 162.238 94 161.111C94.0588 159.525 95.5029 157.991 96 156.5" stroke="#242424" stroke-width="20" stroke-linecap="round"/>
<path id="Vector 14" d="M73 47C79.9558 47 81.7007 44.4348 85 39.3889C86.1335 37.6553 87.9008 36.8834 90 37C92.3785 37.1321 93.5011 41.4989 92 43" stroke="#242424" stroke-width="20" stroke-linecap="round"/>
<path id="Vector 15" d="M90.5 53.5C90.5 56.9815 90.5 60.463 90.5 63.9444C90.5 65.8237 89.8131 66.7508 88.5 65" stroke="#242424" stroke-width="20" stroke-linecap="round"/>
<path id="Vector 16" d="M77.5 43C79.6 42.2 81.3168 42 83.5 42" stroke="#242424" stroke-width="20" stroke-linecap="round"/>
<path id="Vector 17" d="M90 152C90.8908 153.782 92.0164 155.566 92.5 157.5" stroke="#242424" stroke-width="20" stroke-linecap="round"/>
<path id="Vector 18" d="M89.5 28C92.4119 30.206 93.0921 31.2342 94.75 28.25C95.6286 26.6686 92.3069 28.8831 92 29.1111C90.6448 30.1178 89.2368 31.0526 87.5 31C86.6213 30.9734 86.0374 30.35 85.25 30C82.9358 28.9715 85.6814 28.9702 86.6944 28.75C89.6956 28.0976 92.3976 28 95.5 28" stroke="#242424" stroke-width="10" stroke-linecap="round"/>
<path id="Vector 19" d="M96 30.5C97.1024 29.4644 97.9024 28.2243 98.75 29.75C98.8813 29.9863 99.0378 31.143 99 30.5C98.917 29.0883 97.7378 27.5174 97 26.3889C95.4773 24.0601 98.916 27.6593 99.3889 28.8889C99.6412 29.5448 100.778 32.4514 99.7778 32.8889C99.4659 33.0253 93.6457 26.184 92.5 25.6111C91.4123 25.0673 89.0131 24.4211 91.1111 23.5C93.0315 22.6569 94.6885 21.7243 96.3889 20.5C97.9393 19.3837 99.2533 15.9378 100.111 14.2222C102.429 9.58667 97.258 24.2105 95.2778 29C92.433 35.8803 89 42.1194 89 49.6667C89 55.0251 85.9729 60.953 84.1111 65.8889C82.1218 71.1629 82 75.7656 82 81.3333C82 88.2222 80.5476 94.8736 80.5 101.722C80.4577 107.814 80.5 113.908 80.5 120" stroke="#242424" stroke-width="10" stroke-linecap="round"/>
<path id="Vector 20" d="M86 194.5C88.2885 195.84 89.1938 196.126 90.8889 197.889C91.9833 199.027 92.9445 200.056 94.5 200.5C96.627 201.108 98.2484 204.193 99.7778 205.722C100.075 206.019 100.958 208.444 100.722 208.444C100.307 208.444 100.5 203.795 100.5 203.111C100.5 199.158 100.888 196.888 98 194" stroke="#242424" stroke-width="10" stroke-linecap="round"/>
</g>
</svg>
