<svg width="107" height="222" viewBox="0 0 107 222" fill="none" xmlns="http://www.w3.org/2000/svg">
<g id="Group 4">
<g id="Group 2">
<path id="Vector 1" d="M101.696 117.5L3.69617 218" stroke="#242424" stroke-width="5" stroke-linecap="round"/>
<path id="Vector 2" d="M101.196 103.5L3.19617 3" stroke="#242424" stroke-width="5" stroke-linecap="round"/>
<path id="Vector 3" d="M101.196 103.5C103.196 105.833 106.096 111.9 101.696 117.5" stroke="#242424" stroke-width="5" stroke-linecap="round"/>
<path id="Vector 4" d="M3 3V219" stroke="#242424" stroke-width="5" stroke-linecap="round"/>
</g>
<g id="Group 3">
<path id="Vector 5" d="M38.5 116C43.0635 122.537 50.9025 125.483 55.2222 132.222C56.1901 133.732 58 137.561 58 133.778C58 131.305 56.9552 124 61.25 124C62.9671 124 66.6843 121.743 68 120.5C70.8725 117.787 75.3885 115.076 79 113.528C81.4452 112.48 83.0924 109.956 85.7222 109C86.5672 108.693 91.7778 110.804 91.7778 112.167C91.7778 113.101 91 110.407 91 109.472C91 108.479 91.8235 106.5 90.75 106.5C87.9191 106.5 86.0038 107.502 83 106" stroke="#242424" stroke-width="20" stroke-linecap="round"/>
<path id="Vector 6" d="M87.5 119C85.9374 119.632 83.9212 121.078 82.4444 121.5C81.0359 121.902 80.7124 123.015 79.5 123.5C78.6406 123.844 78.4239 124.897 77.5 125C76.4388 125.118 74.8246 126.026 74.5 127" stroke="#242424" stroke-width="20" stroke-linecap="round"/>
<path id="Vector 7" d="M73 127.5C71.7939 129.14 70.904 131.025 69.3889 132.389C68.8821 132.845 66.7594 134.502 67 134.389C69.8879 133.03 72.3673 130.768 75.2778 129.389C77.1832 128.486 76.4142 128.802 74.8889 129.389C73.279 130.008 71.5296 131.039 70 131.889C67.966 133.019 64.2563 135.356 63.3889 137.611C62.2572 140.554 61.2401 144.384 59 146.5C58.6661 146.815 58.1241 147.857 57.7222 147.972C57.672 147.987 56.1246 148.024 56.6111 148.389C56.8484 148.567 58.6838 146.478 59 146.25C59.999 145.529 61.0847 144.824 62 144C64.0797 142.128 67.5313 141.313 69.6111 139.611C71.681 137.918 65.586 138 64 138" stroke="#242424" stroke-width="20" stroke-linecap="round"/>
<path id="Vector 8" d="M53.5 147C51.5782 148.864 49.1908 150.21 47.5 152C46.1535 153.426 44.9419 155.182 43.7222 156.75C42.1168 158.814 39.8644 160.255 39.4722 163C39.1917 164.963 35.4508 166.38 38.8889 164C39.4465 163.614 44.2778 161.406 44.2778 161C44.2778 158.283 41.5284 154.843 40.7222 152.194C39.009 146.565 39.5 140.76 39.5 134.917C39.5 125.721 35.5 117.05 35.5 107.778C35.5 103.496 37.4998 98.2295 42.3889 101C44.096 101.967 46.3267 103.262 47.3889 105C48.2182 106.357 50.037 106.779 51.25 107.722C51.8968 108.225 53.3661 109.84 54.0556 109.917C56.6375 110.204 60.1886 107.878 62.3889 106.778C64.0847 105.93 66.1919 103.1 68 103C70.8844 102.84 74.6194 103.711 77.25 102.25C78.6381 101.479 80.4329 101.022 82 100.5" stroke="#242424" stroke-width="20" stroke-linecap="round"/>
<path id="Vector 9" d="M47.5 129C46.2186 130.281 43.5 132.42 43.5 134.5C43.5 136.583 43.5 138.667 43.5 140.75C43.5 142.957 43.4152 145.183 43.5 147.389C43.5836 149.562 47.4686 149.969 48.75 151.25C53.8488 156.349 42.4199 154.5 39.7222 154.5C38.3148 154.5 36.9074 154.5 35.5 154.5C34.0213 154.5 33.815 152.459 33 151.5C30.285 148.306 29.6913 144.731 28.75 140.778C27.9447 137.396 28.6722 133.835 27.8889 130.389C26.5374 124.442 25.3215 118.5 24.25 112.5C23.3135 107.256 24 101.435 24 96.1111C24 92.7367 25 89.5452 25 86.25C25 80.6338 24.8895 74.4846 26.9722 69.2778C27.9885 66.7372 28.5 63.6186 28.5 60.8889C28.5 58.9686 28.0165 56.3717 29.2778 54.75C30.8656 52.7085 31.6637 52 34.25 52C37.0496 52 38.8309 53.0173 41.2778 54.2778C43.2284 55.2826 43 57.8949 43 59.75C43 61.938 45.174 63.2272 46.6111 64.6111C48.0301 65.9775 51.017 67.2016 51.4722 69.25C52.0289 71.7553 53.2364 72.4793 55.5 73.6111C59.4437 75.583 60.5686 79.8962 63.5 83C64.6766 84.2458 65.9859 85.2637 67.2222 86.5C68.4773 87.7551 69.0094 89.4539 70.25 90.6944C71.7458 92.1903 73.6659 93.4719 75.5 94.3889C76.8087 95.0432 77.5 94.7625 77.5 96.6111C77.5 99.2525 77.0474 101.651 75.1944 103.722C71.4308 107.929 63.1927 109.738 58.1111 107.5C51.8496 104.742 47.3083 99.3491 42.6111 94.6111C39.1584 91.1284 33.4817 87.7696 31.3056 83.25C30.9655 82.5437 28.5771 78.2696 30.0278 78.0278C33.1807 77.5023 36.1896 80.6192 38.5556 82.1111C45.8326 86.6998 53.6023 90.122 60.3889 95.5C62.6934 97.3262 64.345 99.8191 66.5278 101.75C67.9317 102.992 69.418 103.47 68.25 105.028C67.3914 106.173 66.1572 106.729 65 107.5" stroke="#242424" stroke-width="20" stroke-linecap="round"/>
<path id="Vector 10" d="M74.5 99.5C75.5434 97.7176 76.4896 96.7118 74.8889 95.1111C73.7749 93.9972 73.4184 93.3924 72.7222 92C72.1501 90.8557 71.0712 89.8534 71 88.5C70.9237 87.0504 69.6998 87.3669 68.5278 86.7222C66.2448 85.4666 63.4166 83.5027 61.5 81.7778C60.1823 80.5919 58.6307 78.5436 57 78" stroke="#242424" stroke-width="20" stroke-linecap="round"/>
<path id="Vector 11" d="M61 78C61.3271 78.0638 64.853 78.2693 64.9722 78.8056C65.2383 80.0027 64.5423 80.5 63.5 80.5" stroke="#242424" stroke-width="20" stroke-linecap="round"/>
<path id="Vector 12" d="M44.5 165.5C40.584 167.924 37.3718 171.724 33.25 173.556C30.2527 174.888 27.0347 177.908 24.6111 180.111C22.595 181.944 21.7064 187.5 18.25 187.5C13.3686 187.5 13 183.866 13 179.75C13 177.908 12.5135 175.289 13.75 173.778C14.7473 172.559 15 170.19 15 168.611C15 166.991 15 165.37 15 163.75C15 160.581 18.9258 162.38 20.6667 163.889C22.8133 165.749 24.5782 164.158 24.5 161.5C24.4109 158.472 20.9792 156.165 19.2778 154C18.0877 152.485 15.1232 153.842 15 151.5C14.916 149.905 15.3764 147.968 14.7222 146.472C13.2692 143.151 13.5 140.217 13.5 136.611C13.5 133.142 14.399 128.217 13.25 125C11.8888 121.189 12.5 116.515 12.5 112.5C12.5 109.225 12.4269 103.961 11.1111 101C10.523 99.6768 11 97.3266 11 95.8889C11 93.0093 11 90.1296 11 87.25C11 83.25 11 79.25 11 75.25C11 70.537 11 65.8241 11 61.1111C11 57.3869 14 54.2152 14 50.5" stroke="#242424" stroke-width="20" stroke-linecap="round"/>
<path id="Vector 13" d="M17.5 170C15.5127 172.544 15.4743 172.342 14.8889 170C14.4612 168.289 13.095 166.211 13 164.5C12.9375 163.374 13.0417 162.238 13 161.111C12.9412 159.525 11.4971 157.991 11 156.5" stroke="#242424" stroke-width="20" stroke-linecap="round"/>
<path id="Vector 14" d="M34 47C27.0442 47 25.2993 44.4348 22 39.3889C20.8665 37.6553 19.0992 36.8834 17 37C14.6215 37.1321 13.4989 41.4989 15 43" stroke="#242424" stroke-width="20" stroke-linecap="round"/>
<path id="Vector 15" d="M16.5 53.5C16.5 56.9815 16.5 60.463 16.5 63.9444C16.5 65.8237 17.1869 66.7508 18.5 65" stroke="#242424" stroke-width="20" stroke-linecap="round"/>
<path id="Vector 16" d="M29.5 43C27.4 42.2 25.6832 42 23.5 42" stroke="#242424" stroke-width="20" stroke-linecap="round"/>
<path id="Vector 17" d="M17 152C16.1092 153.782 14.9836 155.566 14.5 157.5" stroke="#242424" stroke-width="20" stroke-linecap="round"/>
<path id="Vector 18" d="M17.5 28C14.5881 30.206 13.9079 31.2342 12.25 28.25C11.3714 26.6686 14.6931 28.8831 15 29.1111C16.3552 30.1178 17.7632 31.0526 19.5 31C20.3787 30.9734 20.9626 30.35 21.75 30C24.0642 28.9715 21.3186 28.9702 20.3056 28.75C17.3044 28.0976 14.6024 28 11.5 28" stroke="#242424" stroke-width="10" stroke-linecap="round"/>
<path id="Vector 19" d="M11 30.5C9.89759 29.4644 9.0976 28.2243 8.25 29.75C8.11875 29.9863 7.96218 31.143 8 30.5C8.08304 29.0883 9.26215 27.5174 10 26.3889C11.5227 24.0601 8.08403 27.6593 7.61111 28.8889C7.35883 29.5448 6.22227 32.4514 7.22223 32.8889C7.53411 33.0253 13.3543 26.184 14.5 25.6111C15.5877 25.0673 17.9869 24.4211 15.8889 23.5C13.9685 22.6569 12.3115 21.7243 10.6111 20.5C9.06074 19.3837 7.74666 15.9378 6.88889 14.2222C4.57112 9.58667 9.74197 24.2105 11.7222 29C14.567 35.8803 18 42.1194 18 49.6667C18 55.0251 21.0271 60.953 22.8889 65.8889C24.8782 71.1629 25 75.7656 25 81.3333C25 88.2222 26.4524 94.8736 26.5 101.722C26.5423 107.814 26.5 113.908 26.5 120" stroke="#242424" stroke-width="10" stroke-linecap="round"/>
<path id="Vector 20" d="M21 194.5C18.7115 195.84 17.8062 196.126 16.1111 197.889C15.0167 199.027 14.0555 200.056 12.5 200.5C10.373 201.108 8.75161 204.193 7.22222 205.722C6.92507 206.019 6.04225 208.444 6.27778 208.444C6.69281 208.444 6.5 203.795 6.5 203.111C6.5 199.158 6.11152 196.888 9 194" stroke="#242424" stroke-width="10" stroke-linecap="round"/>
</g>
</g>
</svg>
