<svg width="225" height="220" viewBox="0 0 225 220" fill="none" xmlns="http://www.w3.org/2000/svg">
<g id="Group 1">
<path id="Vector 1" d="M119.5 5.5L220 103.5" stroke="#3B9BD7" stroke-width="5" stroke-linecap="round"/>
<path id="Vector 2" d="M105.5 6L5 104" stroke="#3B9BD7" stroke-width="5" stroke-linecap="round"/>
<path id="Vector 3" d="M105.5 6C107.833 4 113.9 1.1 119.5 5.5" stroke="#3B9BD7" stroke-width="5" stroke-linecap="round"/>
</g>
<g id="Group 2">
<path id="Vector 1_2" d="M119.5 214.5L220 116.5" stroke="#3B9BD7" stroke-width="5" stroke-linecap="round"/>
<path id="Vector 2_2" d="M105.5 214L5 116" stroke="#3B9BD7" stroke-width="5" stroke-linecap="round"/>
<path id="Vector 3_2" d="M105.5 214C107.833 216 113.9 218.9 119.5 214.5" stroke="#3B9BD7" stroke-width="5" stroke-linecap="round"/>
</g>
<g id="Group 3">
<path id="Vector 4" d="M4.5 104.5C3.16667 106.333 1.4 111.2 5 116" stroke="#3B9BD7" stroke-width="5" stroke-linecap="round"/>
<path id="Vector 5" d="M220.5 104C221.833 105.833 224.1 110.7 220.5 115.5" stroke="#3B9BD7" stroke-width="5" stroke-linecap="round"/>
</g>
<g id="Group 5">
<g id="Group 4">
<path id="Vector 6" d="M23.2802 105C29.5318 108.659 37.3339 110.263 44.2802 112" stroke="#3B9BD7" stroke-width="20" stroke-linecap="round"/>
<path id="Vector 7" d="M50.7802 113.5C57.921 109.93 64.7802 104.101 64.7802 95.5" stroke="#3B9BD7" stroke-width="20" stroke-linecap="round"/>
<path id="Vector 8" d="M59.2802 93C53.5183 96.8413 48.7908 104.627 46.6135 111.111C45.8025 113.527 45.7802 116.094 45.7802 118.611C45.7802 119.174 45.8707 120.708 46.5302 119.389C49.2088 114.032 46.15 105.547 43.7802 100.722C42.0444 97.1886 39.2178 94.5461 36.308 92C33.5237 89.5638 33.8002 95.9038 33.7802 97.7222C33.7676 98.8698 33.0232 104.5 35.0302 104.5C36.8385 104.5 36.7979 102.5 38.558 102.5C40.8523 102.5 42.0433 108.198 42.7524 109.722C45.8719 116.429 46.7571 123.266 48.8913 130.222C49.4894 132.171 52.1102 143.324 55.2802 143.5C57.8761 143.644 60.1135 145 60.2802 148C60.4757 151.519 62.5666 153.143 65.2802 154.5" stroke="#3B9BD7" stroke-width="20" stroke-linecap="round"/>
<path id="Vector 9" d="M65.2802 86C68.8406 89.0394 68.8708 92.3502 70.2802 96.5C71.1805 99.1508 73.1597 101.208 73.7802 104C74.8888 108.989 79.0829 113.279 80.1691 118.167C80.6651 120.399 81.7881 122.939 81.1691 125.278C80.6294 127.317 75.9403 128.118 74.1969 127.972C70.1282 127.633 66.0686 124.627 63.8357 121.278C63.2056 120.333 61.498 116.944 61.6135 117.056C67.5167 122.748 69.5912 130.572 70.3913 138.5C70.842 142.966 70.7168 148.108 71.808 152.472C72.5799 155.56 74.2004 156.137 76.5302 157.75C78.8943 159.387 77.5019 163.143 77.8913 165.722C78.1454 167.406 78.4898 168.972 79.1691 170.5C79.5614 171.383 80.2291 174.026 81.058 174.5C81.9176 174.991 83.3776 176.153 84.0024 176.778C85.0555 177.831 85.4849 179.136 86.7802 180" stroke="#3B9BD7" stroke-width="20" stroke-linecap="round"/>
<path id="Vector 10" d="M91.7802 184C92.0859 171.773 96.6144 159.865 99.0302 147.972C100.48 140.833 101.28 134.047 101.28 126.778C101.28 116.852 101.28 106.926 101.28 97" stroke="#3B9BD7" stroke-width="20" stroke-linecap="round"/>
<path id="Vector 11" d="M85.2802 153.5C83.195 133.575 83.7802 113.609 83.7802 93.5833C83.7802 88.1317 83.5001 82.6572 84.5302 77.2778C85.5501 71.9513 87.5844 66.9406 89.7802 62" stroke="#3B9BD7" stroke-width="20" stroke-linecap="round"/>
<path id="Vector 12" d="M68.7802 89.5C66.2536 83.3414 66.6672 78.2843 68.0024 71.9722C68.6837 68.7515 68.5732 64.3008 70.2802 61.3889C72.4284 57.7243 74.2509 54.8621 75.5024 50.75C75.9954 49.1302 75.3022 47.5594 76.8913 46.5C78.1051 45.6908 79.5232 45.1166 80.7802 44.3889C82.1477 43.5972 83.1391 42.3792 84.0857 41.2222C85.5264 39.4614 87.5341 38.5385 88.9746 36.7778C90.4952 34.9194 91.3799 32.4558 93.0857 30.75C95.2002 28.6355 97.8274 27.4047 99.7802 25.2222C101.143 23.6995 101.7 21.4954 103.058 19.75C104.58 17.7926 106.797 16.9914 108.78 16" stroke="#3B9BD7" stroke-width="20" stroke-linecap="round"/>
<path id="Vector 13" d="M111.28 11C114.257 12.519 115.385 13.82 117.002 16.3889C117.674 17.4559 118.107 18.6856 119.086 19.5556C121.793 21.9624 123.555 25.0475 126.28 27.5C127.68 28.7596 129.671 29.1793 131.28 30.1111C132.627 30.8908 133.251 32.009 134.058 33.2778C136.013 36.3504 136.565 40.2853 139.28 43" stroke="#3B9BD7" stroke-width="20" stroke-linecap="round"/>
<path id="Vector 14" d="M139.78 36C140.893 39.3373 142.15 43.036 142.78 46.5C143.301 49.3639 143.927 52.3663 145.669 54.7778C147.876 57.8339 152.88 57.9997 156.03 59.75C157.913 60.7958 158.698 62.1512 159.891 64.1111C162.325 68.109 165.124 71.5878 167.28 75.7778C168.549 78.2429 170.065 80.0964 171.03 82.7778C172.293 86.2854 172.78 88.7281 172.78 92.5C172.78 94.0847 173.006 95.7742 171.78 97C169.68 99.1003 167.105 97.1267 166.252 94.8889C162.384 84.7339 162.44 73.3482 158.502 63.3889C156.52 58.3737 155.489 49 148.78 49" stroke="#3B9BD7" stroke-width="20" stroke-linecap="round"/>
<path id="Vector 15" d="M147.78 50.5C146.137 49.069 145.934 48.1929 146.78 46.5" stroke="#3B9BD7" stroke-width="20" stroke-linecap="round"/>
<path id="Vector 16" d="M131.78 40.5C134.354 45.4413 134.704 51.5828 135.864 56.9444C137.545 64.7225 140.155 72.1922 142.002 79.9167C143.484 86.1103 143.852 92.3341 145.502 98.5C146.305 101.499 147.763 104.433 149.03 107.222C149.606 108.488 150.161 108.475 150.252 106.833C150.632 99.9925 150.28 93.0419 150.28 86.1944C150.28 80.5741 150.28 74.9537 150.28 69.3333C150.28 66.9464 150.553 64.4274 149.891 62.1111C149.791 61.7614 149.735 60.4732 149.002 61.1389C147.864 62.1737 147.28 64.5953 146.697 65.9167C145.209 69.2859 143.71 72.6121 142.891 76.2222C141.152 83.8892 142.166 91.8394 141.558 99.6111C141.025 106.42 139.071 112.346 137.114 118.778C136.885 119.53 136.504 124.296 135.058 122.056C130.045 114.285 127.4 104.818 124.058 96.2778C119.637 84.979 115.644 74.4315 113.558 62.4167C112.273 55.0186 110.338 47.7524 109.252 40.3333C109.123 39.4507 107.497 34.7467 108.725 37.6667C112.592 46.8643 116.398 55.7481 119.225 65.3889C121.919 74.5781 122.728 84.6195 126.28 93.5C127.239 95.8982 124.527 88.6402 123.697 86.1944C121.128 78.6315 119.566 70.8336 118.391 62.9444C117.529 57.1528 116.579 51.0633 117.586 45.2222C118.014 42.7397 119.679 41.7186 117.28 40.7778C115.374 40.0303 113.047 37.7757 111.78 36.1667C110.41 34.4264 109.919 32.1761 108.78 30.3056C106.986 27.3581 106.82 30.7063 106.502 32.6667C104.453 45.3351 101.262 57.8249 99.5024 70.5556C99.1132 73.3716 99.1025 75.87 98.2802 78.6111C97.7145 80.4966 97.2261 81.9992 97.2802 84C97.2863 84.2255 98.2158 86.2486 98.4469 85.5556C98.8771 84.2648 97.5101 80.9909 97.2524 79.8056C96.4166 75.9608 95.7047 72.1026 95.058 68.2222C94.1913 63.0221 93.365 55.5492 90.7802 51C89.8674 49.3934 88.8582 47.1336 87.5302 45.8056C86.531 44.8064 86.5394 49.2649 86.4746 49.6389C85.7903 53.593 84.3797 57.1067 82.7802 60.75C82.2926 61.8606 81.524 64.6956 80.0024 64.9722C77.1821 65.485 74.3298 66.812 71.6135 67.7778C68.9722 68.7169 66.6463 68.9947 63.8357 70.2778C59.6862 72.1721 55.6208 74.0205 51.5024 76.1111C44.9971 79.4133 41.7514 81.1744 39.3913 87.6111C38.4289 90.2359 37.164 92.9564 35.5024 95.2222C34.4324 96.6813 29.898 97.2075 32.1135 94.8889C33.6381 93.2934 35.1284 91.3969 36.8357 90C39.1908 88.0731 42.1114 86.9618 44.5024 85C46.6476 83.2399 48.7102 81.2968 50.6969 79.3611C52.4098 77.6921 55.38 76.3204 56.5302 74.25C57.4141 72.659 56.8435 70.6333 57.7802 69.1111C59.0688 67.0171 59.2079 65.9762 61.558 64.4722C64.8119 62.3897 67.9602 60.3418 71.2802 58.3889C72.0842 57.9159 68.4386 59.2477 67.8357 59.6667C66.7465 60.4236 66.085 61.1738 64.7802 61.5" stroke="#3B9BD7" stroke-width="20" stroke-linecap="round"/>
<path id="Vector 17" d="M58.7802 67C56.2096 68.1017 54.1214 69.8403 51.7524 71.2222C50.97 71.6786 47.3678 72.9936 50.3913 72.3889C56.6985 71.1275 63.1766 66.4145 68.4469 63C71.3936 61.0909 75.6471 58.2663 77.2802 55" stroke="#3B9BD7" stroke-width="20" stroke-linecap="round"/>
<path id="Vector 18" d="M74.2802 51C70.9069 51.7405 68.0333 54.4352 65.2802 56.5" stroke="#3B9BD7" stroke-width="20" stroke-linecap="round"/>
<path id="Vector 19" d="M28.7802 96.5C25.8812 97.0657 24.3533 98.597 21.5024 99.3889C19.2568 100.013 19.2802 100.326 19.2802 102.5" stroke="#3B9BD7" stroke-width="20" stroke-linecap="round"/>
<path id="Vector 20" d="M17.2802 108C16.026 109.655 15.4489 110.098 13.7802 110.889C12.6567 111.421 11.2006 111.744 12.5302 112.778C14.5904 114.38 17.8349 116.185 20.2802 117" stroke="#3B9BD7" stroke-width="20" stroke-linecap="round"/>
<path id="Vector 21" d="M22.7802 118.5C27.796 122.441 33.5652 125.321 39.558 127.5C44.7 129.37 46.5472 136.066 48.5302 140.472C48.8988 141.291 49.3863 142.152 49.6691 143C49.7327 143.191 46.7501 141.719 46.2802 141.389C43.9665 139.763 41.5906 137.83 39.1691 136.389C37.3761 135.322 34.7461 134.331 33.6691 132.5C32.816 131.05 32.4635 129.708 31.7802 128" stroke="#3B9BD7" stroke-width="20" stroke-linecap="round"/>
<path id="Vector 22" d="M47.7802 138.5C48.9574 141.231 49.7025 144.467 52.0302 146.278C53.3982 147.342 53.7945 149.766 54.7802 151.167C55.8998 152.758 60.0427 154.5 61.7802 154.5" stroke="#3B9BD7" stroke-width="20" stroke-linecap="round"/>
<path id="Vector 23" d="M65.2802 157C67.8013 158.91 70.7071 161.87 72.558 164.25C74.4467 166.678 75.8043 168.072 76.7802 171" stroke="#3B9BD7" stroke-width="20" stroke-linecap="round"/>
<path id="Vector 24" d="M89.2802 181C92.7487 185.387 95.9863 191.006 101.03 193.722C103.713 195.167 106.171 197 109.28 197" stroke="#3B9BD7" stroke-width="20" stroke-linecap="round"/>
<path id="Vector 25" d="M112.28 204.5C113.086 205.696 113.917 206.849 114.78 208" stroke="#3B9BD7" stroke-width="20" stroke-linecap="round"/>
<path id="Vector 26" d="M109.78 205.5C108.466 204.541 106.78 203.597 106.78 201.778C106.78 201.033 106.714 200.934 106.28 200.5" stroke="#3B9BD7" stroke-width="20" stroke-linecap="round"/>
<path id="Vector 27" d="M116.78 201C111.819 188.451 114.971 175.409 113.669 162.389C113.147 157.168 110.923 151.988 110.78 146.778C110.741 145.336 110.353 133.398 112.308 139.75C116.387 153.006 114.78 167.729 114.78 181.417C114.78 184.378 112.619 183.042 111.03 184.278C108.239 186.449 105.638 183.253 104.808 180.694C103.755 177.448 104.28 173.616 104.28 170.25C104.28 165.648 104.976 161.118 105.891 156.611C106.977 151.263 108.235 145.842 109.78 140.611C111.815 133.724 112.701 126.77 113.891 119.722C114.299 117.305 115.28 114.855 115.28 112.389C115.28 110.774 116.12 110.812 116.891 112.222C120.14 118.16 120.78 123.54 120.78 130.167C120.78 131.357 120.27 132.064 119.28 130.667C116.069 126.133 117.78 116.752 117.78 111.639C117.78 97.672 118.573 83.4677 117.308 69.5556C117.192 68.2838 116.92 66.8869 115.752 68.6389C112.98 72.7968 111.73 78.7614 110.808 83.5556C107.525 100.629 106.548 118.572 110.78 135.5" stroke="#3B9BD7" stroke-width="20" stroke-linecap="round"/>
<path id="Vector 28" d="M124.28 195C128.36 193.501 128.72 190.842 130.502 187.278C131.5 185.282 131.477 182.743 133.002 181C134.084 179.764 134.513 178.022 135.502 176.75C135.947 176.178 136.046 175.29 136.558 174.778C137.258 174.077 138.134 174.469 138.78 173.5" stroke="#3B9BD7" stroke-width="20" stroke-linecap="round"/>
<path id="Vector 29" d="M137.28 181.5C138.909 179.033 141.706 175.286 142.252 172.278C142.547 170.656 142.433 170.125 143.669 168.889C145.707 166.851 146.258 163.055 147.28 160.5" stroke="#3B9BD7" stroke-width="20" stroke-linecap="round"/>
<path id="Vector 30" d="M131.28 190C128.2 189.324 125.077 186.704 128.002 183.778C130.018 181.762 131.59 181.633 132.669 178.611C134.678 172.987 140.969 169.796 141.752 163.528C142.146 160.376 144.133 157.874 140.28 156C138.762 155.261 137.117 154 135.419 154C131.232 154 127.317 156.214 123.502 157.778C120.989 158.808 115.384 160.643 113.891 163.222C112.92 164.9 119.067 162.993 119.28 162.889C123.025 161.059 126.395 158.435 129.669 155.889C136.213 150.799 137.674 139.932 138.447 132.389C138.978 127.21 138.305 122.46 135.614 118.056C133.602 114.764 130.027 121.213 128.947 122.722C127.171 125.204 108.544 153.794 119.28 154C130.71 154.22 133.165 141.108 135.225 132.639C137.191 124.556 138.631 117.574 146.919 114.417C153.203 112.023 160.024 109.599 165.669 105.889C168.355 104.124 170.482 101.535 172.614 99.1667C173.246 98.4635 175.39 96.9214 174.447 97C172.592 97.1546 170.637 99.245 169.502 100.444C165.18 105.014 161.103 110.154 157.614 115.389C151.761 124.167 146.752 133.387 140.002 141.556C137.192 144.957 134.141 148.15 131.336 151.556C129.657 153.593 128.191 155.755 126.114 157.417C125.677 157.766 124.351 158.66 124.614 158.167C126.53 154.559 131.496 151.454 134.447 148.861C145.231 139.384 155.713 129.287 164.058 117.528C167.689 112.411 155.982 127.133 152.058 132.028C149.095 135.723 146.277 139.529 143.419 143.306C143.246 143.534 139.333 148.583 139.669 148.667C141.69 149.172 144.396 145.568 145.614 144.5C148.459 142.004 151.462 139.773 154.169 137.111C159.905 131.473 165.152 126.123 169.03 119C171.17 115.07 173.45 111.269 175.947 107.556C176.334 106.979 178.276 104.799 177.725 103.833C176.954 102.485 167.805 112.379 167.169 113.111C162.741 118.215 159.541 124.021 155.391 129.278C153.006 132.299 151.318 135.65 148.78 138.611C146.834 140.882 144.439 141.841 142.391 143.889C138.618 147.662 149.518 143.673 150.141 143.444C157.307 140.812 163.512 136.266 170.169 132.611C173.324 130.879 176.676 128.995 179.669 127C180.386 126.522 181.062 125.609 181.252 124.75C181.44 123.907 180.567 124.055 180.058 124.333C177.209 125.887 174.719 128.895 172.447 131.139C165.115 138.378 158.869 146.872 152.669 155.083C151.412 156.748 148.711 158.686 148.252 160.75C148.036 161.722 146.699 162.303 146.391 163.5C146.099 164.639 146.233 165.736 145.891 166.889C145.287 168.927 145.311 170.721 144.53 172.75C143.967 174.214 141.607 176.677 143.669 175.278C146.909 173.079 151.517 169.88 153.78 166.611C155.399 164.273 157.723 162.615 159.03 160C160.452 157.157 162.209 154.38 164.03 151.75C166.778 147.781 171.56 145.441 173.78 141" stroke="#3B9BD7" stroke-width="20" stroke-linecap="round"/>
</g>
<path id="Vector 31" d="M164.78 153H167.28" stroke="#3B9BD7" stroke-width="20" stroke-linecap="round"/>
<path id="Vector 32" d="M165.78 154C166.814 151.35 167.936 150.063 170.28 148.5" stroke="#3B9BD7" stroke-width="20" stroke-linecap="round"/>
<path id="Vector 33" d="M167.78 145C170.587 143.329 173.205 142.075 175.53 139.75C177.035 138.245 177.736 135.925 179.03 134.222C181.468 131.015 183.68 127.351 184.78 123.5" stroke="#3B9BD7" stroke-width="20" stroke-linecap="round"/>
<path id="Vector 34" d="M172.78 144.5C177.9 142.724 180.115 140.225 182.086 135.222C182.938 133.059 184.964 131.37 185.725 129.278C186.053 128.375 185.78 126.937 185.78 126" stroke="#3B9BD7" stroke-width="20" stroke-linecap="round"/>
<path id="Vector 35" d="M172.28 145C173.197 146.633 175.118 151.925 174.28 150.25" stroke="#3B9BD7" stroke-width="20" stroke-linecap="round"/>
<path id="Vector 36" d="M189.006 134.123C188.153 131.791 190.492 130.184 191.451 128.373C191.602 128.088 191.43 127.774 191.645 127.498C192.027 127.007 192.54 126.653 192.881 126.123C193.414 125.294 193.927 124.622 194.506 123.817C195.597 122.303 196.876 121.281 197.562 119.428C197.751 118.918 198.749 117.88 199.131 117.498C199.858 116.771 200.281 115.873 200.951 115.178C201.761 114.337 201.947 113.503 201.617 112.373C201.196 110.929 198.67 110.551 197.451 110.067C194.23 108.789 190.658 108.601 187.395 107.387C185.946 106.847 184.428 106.689 182.923 106.373C182.295 106.241 181.083 106.251 180.562 105.817C180.027 105.372 179.739 104.956 179.478 104.289C178.228 101.093 177.017 97.8666 175.715 94.6922C173.929 90.3403 171.818 86.0955 170.506 81.5672C169.377 77.6682 167.691 73.9805 165.951 70.3172C164.282 66.8033 162.823 63.2271 161.27 59.6644C160.595 58.1147 160.132 56.3091 159.02 55.0117C158.903 54.8754 159.315 55.9757 159.756 56.1228" stroke="#3B9BD7" stroke-width="20" stroke-linecap="round"/>
<path id="Vector 37" d="M170 68C170.214 69.0451 170.461 71.2146 171.361 71.9861C171.961 72.5002 172.328 73.0248 172.75 73.6944C173.956 75.6105 174.271 77.9064 175.5 79.75" stroke="#3B9BD7" stroke-width="20" stroke-linecap="round"/>
<path id="Vector 38" d="M178.53 79.5C179.269 82.1816 181.179 85.832 184.016 86.7778C184.324 86.8802 186.72 88.8202 186.78 89" stroke="#3B9BD7" stroke-width="20" stroke-linecap="round"/>
<path id="Vector 39" d="M180.271 83.0475C180.224 82.81 179.685 81.1091 180.271 81.0475C180.815 80.9902 181.624 80.9418 182.132 81.1725C183.186 81.6516 183.552 82.5307 183.826 83.6586C184.407 86.0457 185.732 87.7208 186.771 89.7975" stroke="#3B9BD7" stroke-width="20" stroke-linecap="round"/>
<path id="Vector 40" d="M189.78 89.75C190.821 92.5473 191.934 96.3504 195.53 96.75C197.155 96.9306 197.975 96.9418 198.475 95C198.823 93.6459 196.89 94.4452 196.28 94.75" stroke="#3B9BD7" stroke-width="20" stroke-linecap="round"/>
<path id="Vector 41" d="M200.03 98C201.709 101.73 203.955 103.871 207.336 106C208.253 106.578 209.097 107.561 210.03 108.056C211.051 108.596 210.823 109.619 210.78 110.694C210.755 111.33 209.244 113.355 208.655 113.486C207.421 113.76 206.943 114.956 205.919 115.514C205.353 115.823 204.749 116.781 204.28 117.25C203.679 117.851 202.988 118.17 202.28 118.625C200.126 120.01 197.957 121.941 195.53 122.75" stroke="#3B9BD7" stroke-width="20" stroke-linecap="round"/>
</g>
<path id="Vector 42" d="M65.25 163.25C67.1619 163.25 70.0339 163.602 70.75 165.75" stroke="#3B9BD7" stroke-width="20" stroke-linecap="round"/>
</svg>
